<?xml version="1.0" encoding="UTF-8"?>
<svg version="1.1" xmlns="http://www.w3.org/2000/svg" width="512" height="512">
<path d="M0 0 C168.96 0 337.92 0 512 0 C512 168.96 512 337.92 512 512 C343.04 512 174.08 512 0 512 C0 343.04 0 174.08 0 0 Z " fill="#000000" transform="translate(0,0)"/>
<path d="M0 0 C11.22 0 22.44 0 34 0 C34.029729 7.28880249 34.029729 7.28880249 34.06005859 14.72485352 C34.12707472 30.81011501 34.20461532 46.89531319 34.28752708 62.98050022 C34.33752302 72.72941604 34.38396679 82.47832399 34.421875 92.22729492 C34.45494772 100.7303415 34.49486181 109.23332461 34.54279006 117.73630089 C34.56790409 122.23323534 34.5897288 126.73012853 34.60334396 131.22711372 C34.61630278 135.47146635 34.63850148 139.71567631 34.66738319 143.95994949 C34.67635225 145.50652574 34.68212377 147.05312488 34.68421364 148.59972572 C34.70498908 161.6548797 35.29515559 174.76660982 39.6875 187.1875 C40.07723999 188.3153894 40.07723999 188.3153894 40.47485352 189.46606445 C45.65122668 203.84829522 53.26815917 214.09416144 67 221 C82.5499797 227.6340946 101.16007488 228.50954537 117.04589844 222.18554688 C124.98971387 218.76079899 132.75530709 215.10662995 138 208 C138.58910156 207.21109375 139.17820313 206.4221875 139.78515625 205.609375 C151.60570364 188.44322975 153.12963111 168.99346359 153.20532227 148.83178711 C153.21491537 147.20486205 153.22492626 145.57793942 153.23532104 143.95101929 C153.2622211 139.55707983 153.28331077 135.16312981 153.30332303 130.76915431 C153.32527513 126.16872048 153.35261845 121.56831869 153.37937927 116.96791077 C153.42918198 108.26652491 153.4741666 99.56512115 153.51740164 90.86370045 C153.56688055 80.95313917 153.62175898 71.04261007 153.67708123 61.13207996 C153.79071045 40.75474858 153.89687792 20.37738745 154 0 C164.89 0 175.78 0 187 0 C187.09061619 21.93295069 187.16416477 43.86574765 187.20724869 65.79883862 C187.2277932 75.98485752 187.25575687 86.17075106 187.30175781 96.35668945 C187.34187588 105.244296 187.36749159 114.13181168 187.37635398 123.01950628 C187.38152687 127.71684079 187.39351152 132.41391552 187.42292023 137.111166 C187.63525543 172.42594262 185.13469371 205.56511563 159.45751953 232.55419922 C141.64310064 250.2253866 118.13089571 256.17000103 93.90039062 256.24023438 C91.89961783 256.2498813 89.89898647 256.28105719 87.8984375 256.3125 C63.46060306 256.40871195 42.50200976 248.20982262 25 231 C23.95005859 229.96939453 23.95005859 229.96939453 22.87890625 228.91796875 C13.09636517 218.63962637 7.84412977 206.44714595 4 193 C3.69191406 191.9584375 3.38382813 190.916875 3.06640625 189.84375 C-0.41710783 177.17642605 -0.14504437 164.13677798 -0.11352539 151.10229492 C-0.11324266 149.44522605 -0.11340294 147.78815706 -0.1139679 146.13108826 C-0.1142525 141.67331136 -0.10841056 137.21556186 -0.10139394 132.75779128 C-0.095104 128.08399711 -0.09455217 123.41020217 -0.09336853 118.73640442 C-0.09027174 109.90408911 -0.08208081 101.07178632 -0.07201904 92.2394765 C-0.06080635 82.17649033 -0.05533451 72.11350354 -0.05032361 62.05051267 C-0.03989667 41.36699993 -0.02157194 20.68350433 0 0 Z " fill="#FEFEFE" transform="translate(56,130)"/>
<path d="M0 0 C1.19737793 0.29801514 1.19737793 0.29801514 2.41894531 0.60205078 C14.85573204 3.81100136 26.41923379 8.48934555 38 14 C34.34681262 23.83161949 30.26631208 33.4223138 26 43 C22.27482098 41.81740349 18.81085307 40.48472053 15.3125 38.75 C10.15264319 36.37124248 4.90453616 34.5376122 -0.5 32.8125 C-1.27045654 32.56274414 -2.04091309 32.31298828 -2.8347168 32.05566406 C-13.36254811 28.77408955 -23.38493301 27.64823997 -34.4152832 27.68432617 C-36.43170106 27.6874909 -38.44665218 27.66391468 -40.46289062 27.63867188 C-54.75223652 27.63164318 -67.76196167 30.68275428 -79.4375 39.3125 C-85.83977543 46.02708155 -88.34522443 53.1497391 -88.2109375 62.28125 C-87.49860964 71.46236464 -83.91437898 78.75959299 -76.94921875 84.76953125 C-64.61297491 93.95433129 -49.74142437 99.51408922 -35.5 105 C-15.24911669 112.80080251 4.56095824 121.51798702 21 136 C21.64710938 136.54011719 22.29421875 137.08023438 22.9609375 137.63671875 C32.26372773 145.99239232 39.10462105 160.08836819 40.34741211 172.45776367 C40.46247969 176.06395683 40.44869332 179.64290597 40.375 183.25 C40.37306641 185.07144531 40.37306641 185.07144531 40.37109375 186.9296875 C40.19096239 205.30308636 33.43221116 220.33771842 20.875 233.625 C-1.67963593 255.41142626 -31.90644691 257.70810069 -61.66796875 257.34375 C-86.84315643 256.85514168 -115.7389042 249.0709712 -135 232 C-129.95125852 222.49769388 -124.48865962 213.25262185 -119 204 C-114.7123103 204.88574719 -111.7077267 207.13614834 -108.1875 209.625 C-97.30391166 217.07349333 -86.07328887 222.58908179 -73 225 C-71.92492187 225.20367187 -70.84984375 225.40734375 -69.7421875 225.6171875 C-48.99522517 229.06713796 -27.06291794 227.66117232 -9 216 C-1.9730296 210.61155634 2.35622714 203.73634834 4 195 C4.76996258 182.85731142 4.46018445 173.22623431 -3.4375 163.375 C-17.10408688 149.10768402 -39.32780107 142.20190624 -57.20581055 135.02514648 C-66.06217027 131.44521061 -74.60312403 127.54911958 -83 123 C-84.06992187 122.42894531 -85.13984375 121.85789062 -86.2421875 121.26953125 C-101.18354828 112.96243881 -113.01234968 102.28459444 -119 86 C-119.3196875 85.15695313 -119.639375 84.31390625 -119.96875 83.4453125 C-124.87394312 67.77594558 -123.47018268 49.63900283 -116.5625 34.94140625 C-106.74064708 16.40738091 -88.62015828 5.83473997 -69.12109375 -0.2578125 C-48.15461428 -6.05034604 -21.01320301 -5.26512718 0 0 Z " fill="#FDFDFD" transform="translate(416,129)"/>
</svg>
